<?xml version="1.0" standalone="no"?>
<!DOCTYPE svg PUBLIC "-//W3C//DTD SVG 20010904//EN"
 "http://www.w3.org/TR/2001/REC-SVG-20010904/DTD/svg10.dtd">
<svg version="1.0" xmlns="http://www.w3.org/2000/svg"
 width="700.000000pt" height="700.000000pt" viewBox="0 0 700.000000 700.000000"
 preserveAspectRatio="xMidYMid meet">
<metadata>
Created by potrace 1.14, written by Peter Selinger 2001-2017
</metadata>
<g transform="translate(0.000000,700.000000) scale(0.100000,-0.100000)"
fill="#000000" stroke="none">
<path d="M0 6365 l0 -635 25 -1 c14 0 1445 0 3180 0 1735 0 3299 0 3475 0
l320 1 0 635 0 635 -3500 0 -3500 0 0 -635z"/>
<path d="M2800 3888 c1 -1361 -2 -1307 75 -1463 66 -135 147 -222 286 -307
100 -61 293 -132 409 -152 68 -11 95 -16 116 -21 12 -3 52 -8 90 -11 38 -3 72
-8 76 -10 3 -2 83 -7 177 -10 l171 -7 -2 253 c-3 286 8 254 -93 264 -106 12
-226 60 -279 112 -16 16 -38 49 -49 74 -21 45 -21 58 -21 1263 l0 1217 -478 0
-478 0 0 -1202z"/>
<path d="M17 1272 c-16 -3 -17 -52 -17 -638 l0 -634 3500 0 3500 0 0 635 c0
598 -1 635 -17 636 -66 2 -6953 3 -6966 1z"/>
</g>
</svg>
