<svg width="84" height="51" viewBox="0 0 84 51" fill="none" xmlns="http://www.w3.org/2000/svg">
<rect width="84" height="7.38462" fill="#212121"/>
<rect y="43.3846" width="84" height="7.38462" fill="#212121"/>
<path d="M0 31.0057V13.7004H4.26788V31.4478C4.26788 32.753 4.92765 33.4793 6.24719 33.6267V37.3846C2.0824 37.3846 0 35.2583 0 31.0057Z" fill="#212121"/>
<path d="M9.60491 17.6478V13.3846H14.0584V17.6478H9.60491ZM9.69769 37.0688V20.3951H13.9656V37.0688H9.69769Z" fill="#212121"/>
<path d="M18.426 37.0688V20.3951H27.4566C30.7967 20.3951 32.4667 22.1004 32.4667 25.5109V37.0688H28.1989V25.1951C28.1989 24.5215 27.869 24.1846 27.2092 24.1846H22.6939V37.0688H18.426Z" fill="#212121"/>
<path d="M36.7887 37.0688V13.7004H41.0566V20.3951H45.8193C49.1594 20.3951 50.8294 22.1004 50.8294 25.5109V37.0688H46.5616V25.1951C46.5616 24.5215 46.2317 24.1846 45.5719 24.1846H41.0566V37.0688H36.7887Z" fill="#212121"/>
<path d="M59.2956 37.0688C55.9555 37.0688 54.2855 35.3951 54.2855 32.0478C54.2855 28.7004 55.9555 27.0267 59.2956 27.0267H63.5635V25.1951C63.5635 24.5215 63.2336 24.1846 62.5739 24.1846H56.0174V21.8162L57.873 20.3951H62.8213C66.1614 20.3951 67.8314 22.1004 67.8314 25.5109V37.0688H59.2956ZM58.5534 32.2688C58.5534 32.9425 58.8833 33.2793 59.543 33.2793H63.5635V30.3741H59.543C58.8833 30.3741 58.5534 30.7109 58.5534 31.3846V32.2688Z" fill="#212121"/>
<path d="M71.5984 35.6478V33.2793H78.7115C79.4125 33.2793 79.7631 32.8793 79.7631 32.0793C79.7631 31.2583 79.4744 30.7951 78.8971 30.6899L75.557 30.1215C72.9179 29.6583 71.5984 28.1004 71.5984 25.4478C71.5984 22.0793 73.2684 20.3951 76.6085 20.3951H81.4022L83.2578 21.8162V24.1846H76.8559C76.1549 24.1846 75.8044 24.5846 75.8044 25.3846C75.8044 26.2267 76.124 26.7004 76.7632 26.8057L80.0723 27.3741C82.6908 27.8162 84 29.353 84 31.9846C84 35.3741 82.3197 37.0688 78.959 37.0688H73.454L71.5984 35.6478Z" fill="#212121"/>
</svg>
